<?xml version="1.0" standalone="no"?><!DOCTYPE svg PUBLIC "-//W3C//DTD SVG 1.1//EN" "http://www.w3.org/Graphics/SVG/1.1/DTD/svg11.dtd"><svg t="1510409654895" class="icon" style="" viewBox="0 0 1024 1024" version="1.1" xmlns="http://www.w3.org/2000/svg" p-id="4774" xmlns:xlink="http://www.w3.org/1999/xlink" width="48" height="48"><defs><style type="text/css"></style></defs><path d="M611.947 56.213c0.64 0 1.28 0 1.707 0.107 1.067 5.76 0.853 20.373-8.32 45.013l-79.467 215.68c-20.587 55.787-68.267 96.213-113.387 96.213-8.427 0-16.64-1.387-24.32-4.267-50.453-18.56-76.267-74.667-57.707-125.12 23.040-62.4 110.72-150.72 187.627-188.907l51.52-25.6c24-11.84 37.547-13.12 42.347-13.12M706.453 324.907c11.413 0 22.613 2.027 33.28 5.973 62.4 23.040 150.72 110.72 188.907 187.627l25.6 51.52c11.733 23.573 13.44 38.080 13.12 43.947-1.28 0.213-3.2 0.427-5.973 0.427-7.147 0-19.627-1.493-39.147-8.64l-215.68-79.467c-68.053-25.067-110.187-88.107-91.947-137.707 14.080-38.080 50.987-63.68 91.84-63.68M61.867 409.6c7.147 0 19.627 1.493 39.147 8.64l215.68 79.467c34.667 12.8 64.213 36.16 81.173 64.107 15.147 25.067 18.987 51.2 10.773 73.6-14.080 38.080-50.88 63.68-91.733 63.68-11.413 0-22.613-2.027-33.28-5.973-62.4-22.933-150.72-110.72-188.907-187.627l-25.6-51.52c-11.733-23.573-13.44-38.080-13.12-43.947 1.28-0.213 3.2-0.427 5.867-0.427M610.773 610.667c8.427 0 16.64 1.387 24.32 4.267 50.453 18.56 76.267 74.667 57.707 125.12-22.933 62.4-110.72 150.72-187.627 189.013l-51.52 25.6c-23.787 11.84-37.44 13.12-42.24 13.12-0.64 0-1.28 0-1.707-0.107-1.067-5.76-0.853-20.373 8.32-45.013l79.467-215.68c20.373-55.787 68.16-96.32 113.28-96.32M611.947 10.667c-16.96 0-38.080 5.76-62.507 17.813l-51.52 25.6c-88.427 43.947-182.933 140.267-210.133 213.973-27.2 73.92 10.88 156.48 84.693 183.68 13.013 4.8 26.453 7.040 40 7.040 63.253 0 128.107-49.813 156.16-126.080l79.467-215.68c24.747-66.987 8.32-106.347-36.16-106.347v0zM706.453 279.36c-58.24 0-113.28 35.84-134.507 93.547-27.2 73.813 26.347 162.133 118.933 196.16l215.68 79.467c21.227 7.787 39.573 11.52 54.933 11.52 51.52 0 67.52-42.027 33.707-110.187l-25.6-51.52c-43.947-88.427-140.267-182.933-213.973-210.133-16.32-6.080-32.853-8.853-49.173-8.853v0zM61.867 363.947c-51.627 0-67.52 42.027-33.707 110.187l25.6 51.52c43.947 88.427 140.267 182.933 213.973 210.133 16.107 5.973 32.747 8.747 49.067 8.747 58.24 0 113.28-35.84 134.507-93.547 27.2-73.813-26.347-162.133-118.933-196.16l-215.573-79.36c-21.227-7.787-39.68-11.52-54.933-11.52v0zM610.773 565.12c-63.253 0-128.107 49.813-156.16 126.080l-79.467 215.68c-24.64 66.987-8.213 106.453 36.267 106.453 16.96 0 38.080-5.76 62.507-17.813l51.52-25.6c88.427-43.947 182.933-140.267 210.133-213.973 27.2-73.813-10.987-156.373-84.8-183.573-13.013-4.907-26.453-7.253-40-7.253v0z" fill="#888888" p-id="4775"></path></svg>
