<?xml version="1.0" standalone="no"?><!DOCTYPE svg PUBLIC "-//W3C//DTD SVG 1.1//EN" "http://www.w3.org/Graphics/SVG/1.1/DTD/svg11.dtd"><svg t="1487039099631" class="icon" style="" viewBox="0 0 1024 1024" version="1.1" xmlns="http://www.w3.org/2000/svg" p-id="4560" xmlns:xlink="http://www.w3.org/1999/xlink" width="200" height="200"><defs><style type="text/css"></style></defs><path d="M860.545766 442.937065c-13.630439 0-24.684192 11.407817-24.729218 25.497721l-0.002047 0 0 216.940914c0 33.909297-27.489074 61.398372-61.398372 61.398372l-542.352285 0c-33.909297 0-61.398372-27.489074-61.398372-61.398372l0-433.881828c0-33.909297 27.489074-61.398372 61.398372-61.398372l265.539772 0c0.171915 0.004093 0.342808 0.013303 0.515746 0.013303 12.836353 0 23.243377-10.765181 23.243377-24.044626 0-13.278421-10.407024-24.044626-23.243377-24.044626-0.00307 0-0.00614 0-0.00921 0l0-0.020466L199.720206 141.999085c-45.212738 0-81.864496 36.651758-81.864496 81.864496l0 489.140363c0 45.212738 36.651758 81.864496 81.864496 81.864496l603.750657 0c45.212738 0 81.864496-36.651758 81.864496-81.864496l0-244.570181-0.061398 0C885.228935 454.345905 874.176205 442.937065 860.545766 442.937065z" p-id="4561" fill="#666666"></path><path d="M917.57769 272.146237l0-0.278339L738.752886 92.502787l-5.649674-5.494131-0.715291 0.741897c-3.960195-2.220574-8.43409-3.399423-13.05841-3.399423-14.897292 0-27.012214 12.138458-27.012214 27.059286 0 4.653997 1.173732 9.124821 3.402493 13.085016l-0.797156 0.818645 124.499525 124.833123-127.768989 0.047072C483.616044 276.136108 432.534646 404.848585 417.483858 604.680842c0 14.922874 12.110829 27.059286 27.00812 27.059286 12.168134 0 22.491247-8.100492 25.864064-19.212574l1.226944-7.18361c15.818267-188.993398 53.073776-282.241152 221.042325-301.000402l126.796848 0-118.979812 119.314433-4.825912 6.7968c-1.715061 3.604084-2.610454 7.996115-2.610454 11.981892 0 14.926968 12.115945 27.064402 27.012214 27.064402 4.239558 0 8.919137-1.02433 12.673647-2.964518l184.126554-183.368284c1.633197-1.149173 3.634784-3.972475 3.634784-6.119371S919.209864 273.290293 917.57769 272.146237z" p-id="4562" fill="#666666"></path></svg>
