<?xml version="1.0" standalone="no"?><!DOCTYPE svg PUBLIC "-//W3C//DTD SVG 1.1//EN" "http://www.w3.org/Graphics/SVG/1.1/DTD/svg11.dtd"><svg t="1510408656738" class="icon" style="" viewBox="0 0 1024 1024" version="1.1" xmlns="http://www.w3.org/2000/svg" p-id="2711" xmlns:xlink="http://www.w3.org/1999/xlink" width="48" height="48"><defs><style type="text/css"></style></defs><path d="M511.77148437 934.07011719c-235.5609375 0-426.52705078-190.96523437-426.52705078-426.52705078s190.96523437-426.52705078 426.52705079-426.52705079 426.52705078 190.96523437 426.52705078 426.52705079-190.96523437 426.52705078-426.52705078 426.52705078zM511.77148437 889.94902344c40.11855469 0 78.76494141-6.23056641 115.09277344-17.67480469l-224.30478515-224.32939453c-1.13730469-1.11005859-1.68222656-2.51103516-2.51103516-3.78808594-39.66064453-32.54501953-64.76044922-81.56162109-64.76044922-136.43789062 0-0.05800781 0-0.11689453 0-0.17490235 0-3.77929688 0.35419922-7.52519531 0.56689453-11.2930664l-171.1555664 171.1555664c60.59091797 131.24882812 193.02626953 222.55136719 347.07392578 222.55136719zM511.77148437 375.18154297c-73.10126953 0-132.36855469 59.26201172-132.36855468 132.36855469s59.26201172 132.36855469 132.36855468 132.36855468c73.10126953 0 132.36855469-59.26201172 132.36855469-132.36855468 0-73.10126953-59.26201172-132.36855469-132.36855468-132.36855469zM129.34003906 507.54394531c0 40.11855469 6.25429687 78.76494141 17.72753907 115.09277344l224.2828125-224.30478516c1.13730469-1.11005859 2.53916016-1.68222656 3.8399414-2.51103515 32.52568359-39.66064453 81.52998047-64.76044922 136.39482422-64.76044922 0.06591797 0 0.13183594 0 0.19863281 0 3.77929688 0 7.52519531 0.33134766 11.2913086 0.56689453l-171.15556641-171.13007813c-131.24882812 60.56542969-222.57333984 193.00341797-222.57333984 347.04667969zM511.77148437 125.13798828c-40.11855469 0-78.76494141 6.23056641-115.09277343 17.70029297l224.30478515 224.30478516c1.13730469 1.11005859 1.68222656 2.53916016 2.51103516 3.78808593 39.66064453 32.54501953 64.76044922 81.56162109 64.76044922 136.43789063 0 0.05800781 0 0.11689453 0 0.17490234 0 3.77929688-0.35419922 7.52519531-0.56689453 11.29306641l171.13007812-171.13007813c-60.56542969-131.27519531-193.00341797-222.57333984-347.04667969-222.57333984zM652.16708984 616.73837891c-1.11005859 1.13730469-2.51103516 1.68222656-3.78808593 2.51103515-32.54501953 39.66064453-81.56162109 64.76044922-136.43789063 64.76044922-0.05800781 0-0.11689453 0-0.17490234 0-3.77929688 0-7.52519531-0.35419922-11.29306641-0.56689453l171.15556641 171.13007813c131.24882812-60.56542969 222.55136719-193.00341797 222.55136719-347.04667969 0-40.11855469-6.23056641-78.76494141-17.67480469-115.09277344l-224.32939453 224.30478516z" fill="#1296db" p-id="2712"></path></svg>