<?xml version="1.0" standalone="no"?><!DOCTYPE svg PUBLIC "-//W3C//DTD SVG 1.1//EN" "http://www.w3.org/Graphics/SVG/1.1/DTD/svg11.dtd"><svg t="1487037882522" class="icon" style="" viewBox="0 0 1024 1024" version="1.1" xmlns="http://www.w3.org/2000/svg" p-id="3009" xmlns:xlink="http://www.w3.org/1999/xlink" width="200" height="200"><defs><style type="text/css"></style></defs><path d="M758.278079 944.873872 547.287691 944.873872c-100.787474 0-161.863505-50.627051-184.855148-69.687152-0.013303-0.011256-0.026606-0.022513-0.040932-0.033769-2.64934-2.193968-5.983271-3.39533-9.423627-3.39533l-43.014676 0c-11.04966 0-20.007683-8.958022-20.007683-20.007683L289.945625 434.489672c0-11.04966 8.958022-20.007683 20.007683-20.007683l37.262672 0c13.036921-0.756223 82.824357-35.603893 124.526131-106.597807 13.31526-22.648836 20.002566-49.751101 24.63405-99.899244 0.847298-18.690688-0.061398-35.022655-0.862647-49.445132-1.546216-27.789926-2.76702-49.741891 11.976776-64.801888 0.148379-0.150426 0.299829-0.300852 0.453325-0.447185 3.939729-3.777023 13.165858-12.600993 59.734476-11.248182 19.515473 0.574075 45.288462 3.124154 59.09491 8.55791 53.226249 21.004383 68.561515 59.446927 72.057129 87.998193 12.636808 102.726639-35.005258 199.411679-45.065382 218.423685-1.682315 4.01136-1.302669 8.124028 1.029446 11.761881 2.309602 3.589758 6.288217 5.664 10.897188 5.664l179.036629 0c75.977415 0 116.137067 38.145785 116.137067 110.313431 0 74.061786-46.677089 212.747405-74.566276 295.608601-7.375991 21.916149-13.201673 39.225373-15.471366 47.559179-0.107447 0.355087-0.210801 0.695848-0.318248 1.050935C854.680686 915.791509 811.66601 944.873872 758.278079 944.873872z" p-id="3010" fill="#0aaff4"></path><path d="M209.915917 871.926466 84.531232 871.926466c-11.04966 0-20.007683-8.958022-20.007683-20.007683L64.523549 434.489672c0-11.048637 8.958022-20.007683 20.007683-20.007683l125.384685 0c11.04966 0 20.007683 8.958022 20.007683 20.007683l0 417.429111C229.9236 862.96742 220.966601 871.926466 209.915917 871.926466z" p-id="3011" fill="#0aaff4"></path></svg>