<?xml version="1.0" standalone="no"?><!DOCTYPE svg PUBLIC "-//W3C//DTD SVG 1.1//EN" "http://www.w3.org/Graphics/SVG/1.1/DTD/svg11.dtd"><svg t="1488333554956" class="icon" style="" viewBox="0 0 1024 1024" version="1.1" xmlns="http://www.w3.org/2000/svg" p-id="1063" xmlns:xlink="http://www.w3.org/1999/xlink" width="200" height="200"><defs><style type="text/css"></style></defs><path d="M774.6 419c0 11.2-0.6 22.4-1.4 33.6-0.4 5.6-1 11-1.8 16.4 0.8-6.8-0.4 2.2-0.4 3l-1.8 10.8c-4 22.2-10.2 43.8-18.2 64.8-1 2.4-2 5-2.8 7.4-0.2 0.8-3.8 8.8-1 2.6-2 4.8-4.4 9.6-6.6 14.4-5 10.4-10.4 20.4-16.4 30.2-5.4 9-11.2 17.8-17.2 26.4-1.6 2.2-3 4.2-4.6 6.4-0.4 0.6-5.8 7.4-1.6 2.2-3.8 4.8-7.8 9.6-11.8 14.2-14.2 16.6-30 31.8-47 45.6-2 1.6-4 3.4-6.2 5 5.2-4.2-1.6 1.2-2.2 1.6-4.2 3.2-8.6 6.2-12.8 9.2-9.4 6.4-19.2 12.4-29 18-9.2 5.2-18.6 10-28.2 14.4-2.4 1.2-4.8 2.2-7.2 3.2 6.2-2.6-2 0.8-2.6 1-5.8 2.4-11.6 4.4-17.6 6.6-21.4 7.4-43.4 12.8-65.6 16.4-0.8 0.2-9.8 1.4-3 0.4-2.8 0.4-5.4 0.6-8.2 1-5.6 0.6-11 1-16.6 1.4-12.2 0.8-24.4 1-36.6 0.6-11.2-0.2-22.2-1.2-33.4-2.4-0.8 0-9.8-1.4-3-0.4-2.8-0.4-5.4-0.8-8.2-1.2-6.2-1-12.6-2.2-18.8-3.6-22-4.6-43.4-11.4-64.2-19.8-8.2-3.4 5.4 2.4-2.6-1.2-2.4-1-4.8-2.2-7.2-3.2-4.8-2.2-9.6-4.6-14.2-7-10.2-5.2-20-11-29.8-17-8.8-5.6-17.4-11.6-26-18-7-5.2 4.6 3.6-2.2-1.8-2-1.6-4-3.4-6-5-4.8-4-9.2-8-13.8-12-7.8-7-15.2-14.6-22.4-22.2-3.6-3.8-7-7.8-10.4-11.8-1.8-2-3.4-4-5-6-0.8-0.8-7.4-9.4-3.4-4.2-13.4-17.4-25.2-36-35.4-55.4-2.4-4.6-4.8-9.4-7.2-14.2-1.2-2.4-2.2-4.8-3.4-7.2-0.4-0.6-3.8-8.8-1.2-2.6-4.4-10.6-8.4-21.6-12-32.6-3.2-10.2-6-20.8-8.4-31.2-1.2-5.4-2.2-10.6-3.2-16-0.4-2.6-1-5.4-1.4-8-0.2-1.8-0.6-3.6-0.8-5.4 0.4 3.4 0.4 3.4 0-0.2-3-23.2-3.4-46.6-2.2-69.8 0.2-5.6 0.8-11 1.4-16.6 0.2-2.8 0.6-5.4 1-8.2 1-9-1 6 0.4-3 1.8-11.6 4-23.2 6.8-34.8 2.6-10.4 5.6-20.8 9-31 1.6-5 3.6-10 5.4-15 1-2.4 2-5 3-7.4 1.4-3.2 1.4-3.2 0-0.2 0.8-1.6 1.4-3.2 2.2-4.8 9-20.2 19.8-39.4 32-57.6 3-4.4 6-8.6 9-12.8 1.6-2.2 3.2-4.2 4.8-6.2-4 5.2 1.4-1.6 1.8-2.2 7.2-8.8 14.8-17.4 22.6-25.6 7.2-7.6 15-14.8 22.8-21.8l12-10.2c0.6-0.4 7.4-5.8 2.2-1.8 2.8-2.2 5.6-4.2 8.4-6.2 17.8-13 36.8-24.2 56.4-34 4.8-2.4 9.6-4.6 14.4-6.8 8-3.6-5.6 2.2 2.6-1.2 2.4-1 5-2 7.4-3 10.8-4.2 21.8-7.8 33-11 10.4-3 21-5.4 31.6-7.6 5.4-1 10.8-2 16.2-2.8 9-1.4-6.2 0.8 3-0.4 3.6-0.4 7.4-0.8 11-1.2 23.2-2.2 46.6-2.2 70-0.2 5.6 0.4 11 1 16.4 1.8-6.8-0.8 2.2 0.4 3 0.4 2.8 0.4 5.4 0.8 8 1.4 11.6 2 23 4.8 34.4 7.8 10.4 2.8 20.6 6.2 30.6 9.8 5 1.8 10 3.8 14.8 5.8-6.2-2.6 2 0.8 2.6 1.2 3.2 1.4 6.4 3 9.6 4.4 19.8 9.4 38.8 20.8 56.6 33.6 2.2 1.6 4.2 3 6.4 4.6 0.6 0.4 7.4 5.8 2.2 1.6 4.2 3.2 8.2 6.6 12.2 10 8.6 7.4 17 15.2 24.8 23.2 7.4 7.4 14.4 15.2 21 23.4 1.6 2 3.4 4 5 6 5.4 6.8-3.6-4.8 1.8 2.2 3.8 4.8 7.2 9.8 10.8 15 10.4 15.2 19.8 31.2 28 47.8 2 4 3.8 8 5.6 12 0.8 1.6 1.4 3.2 2.2 4.8-2.6-6.2 0.8 2 1 2.6 3.6 9 7 18.4 9.8 27.8 5.8 18 10 36.6 13 55.4 0.2 1.8 0.6 3.6 0.8 5.4-1-6.8 0.2 2.2 0.4 3 0.6 4.6 1 9.2 1.4 13.8 1 11 1.4 21.2 1.4 31.4 0.2 38.6 60.2 38.6 60 0-0.4-96.4-33.8-187.8-93.4-263-56.8-71.6-139.6-122.6-228.4-143.4-94.6-22.2-194.4-9.8-281.6 32.6C149.8 85 82 154.2 42.2 235.6-0.2 323-10.8 423 11.4 517.4c21 89 73.4 170.6 144.8 227.4 75 59.6 167.8 92.2 263.8 91.8 96-0.4 187.8-35.2 262.2-95 96.4-77.6 152-199.2 152.4-322.4 0.2-38.8-59.8-38.8-60-0.2z" p-id="1064" fill="#333333"></path><path d="M565 243.4c68.8 35.4 97.8 118.4 63.8 187.2-5.4 11-3 24.2 8 30.8 10 5.8 25.4 3 30.8-8 21.6-43.6 26.4-93.2 11.8-140-14.6-46.8-48.4-86.4-91.8-108.8-25.8-13.4-48.4 25.4-22.6 38.8zM676.4 744.2c72.6 66.4 145.2 132.8 218 199.2 26.2 24 52.4 48 78.6 71.8 12 11 30.4 12 42.4 0 11.2-11.2 12-31.4 0-42.4-72.6-66.4-145.2-132.8-218-199.2-26.2-24-52.4-48-78.6-71.8-12-11-30.4-12-42.4 0-11.2 11.2-12 31.4 0 42.4z" p-id="1065" fill="#333333"></path><path d="M514.6 190m-30 0a30 30 0 1 0 60 0 30 30 0 1 0-60 0Z" p-id="1066" fill="#333333"></path></svg>