<?xml version="1.0" standalone="no"?><!DOCTYPE svg PUBLIC "-//W3C//DTD SVG 1.1//EN" "http://www.w3.org/Graphics/SVG/1.1/DTD/svg11.dtd"><svg t="1488333519420" class="icon" style="" viewBox="0 0 1024 1024" version="1.1" xmlns="http://www.w3.org/2000/svg" p-id="740" xmlns:xlink="http://www.w3.org/1999/xlink" width="200" height="200"><defs><style type="text/css"></style></defs><path d="M983.8 433.6m-30 0a30 30 0 1 0 60 0 30 30 0 1 0-60 0Z" p-id="741" fill="#333333"></path><path d="M964 534.6c0 9.2-0.6 18.2-1.6 27.4-0.8 7.8 1-6.6-0.2 1-0.4 2.2-0.8 4.4-1 6.8-1 5.2-2 10.4-3.2 15.4-2.2 8.8-4.8 17.4-7.8 26-0.8 2.2-1.6 4.2-2.4 6.4-0.4 1.2-3.4 8.4-0.4 1.2-2 5-4.4 9.8-6.8 14.6-4.2 8.4-8.8 16.4-13.6 24.2-2.4 4-5 7.8-7.8 11.8-1.4 2-2.8 3.8-4.2 5.8-0.8 1-7 9.4-2.4 3.4-12.6 16.2-26.6 31-41.8 44.6-7.6 6.8-15.4 13.4-23.4 19.6 5.4-4.2-1.6 1-2.2 1.6-2 1.6-4.2 3-6.4 4.6-5 3.6-10 7-15.2 10.4-19 12.4-38.8 23.4-59.2 33-5 2.4-10.2 4.6-15.2 7-8.6 3.8 5.4-2.2-3.2 1.4-2.6 1-5.2 2.2-8 3.2-11.6 4.6-23.4 8.8-35.4 12.6-23.6 7.6-48 13.6-72.4 18.4-6 1.2-12 2.2-18.2 3.2-3 0.4-6.2 1-9.2 1.4 0 0-10.2 1.4-4.4 0.6-13.6 1.8-27.2 3-40.8 4-26.8 1.8-53.6 1.8-80.4 0.6-12.6-0.6-25.2-1.6-37.8-3-12.6-1.4-19.8-2.4-35-5-24.6-4.2-49-10.2-73-17.4-11.2-3.4-22.2-7.2-33-11.2-5.4-2-10.6-4-16-6.2-0.4-0.2-9-3.8-3.2-1.4-3.4-1.4-6.8-3-10.2-4.6-20.8-9.4-40.8-20.2-60.2-32.2-9-5.6-17.6-11.6-26.2-17.8-2-1.6-4.2-3-6.2-4.6 5.4 4-1.4-1.2-2-1.6-4.6-3.6-9.2-7.6-13.6-11.4-15.6-13.4-29.8-28.2-43-44-1.6-1.8-3-3.8-4.4-5.6 4.6 5.8-0.4-0.6-1-1.6-2.8-3.8-5.6-7.6-8.2-11.6-5.6-8.4-10.8-17-15.6-26-2.2-4-4.2-8.2-6.2-12.4-1-2-2-4.2-2.8-6.2-3.2-7.2 2.4 6-0.6-1.2-3.6-9.2-6.8-18.4-9.4-28-2.4-8.8-4.2-17.6-5.8-26.6-0.2-1.4-1.2-9.2-0.2-1-0.2-2.2-0.6-4.6-0.8-6.8-0.6-5.4-0.8-10.6-1-16-0.2-6 1-14.8-0.8-1.6 3-21.4 9.4-42.6 17-62.8 1.4-3.8 3-7.8 4.6-11.6-4.6 11-1.2 2.6 0 0.2 1-2.4 2.2-4.8 3.2-7.2 4.2-9.2 9-18.2 14-27 5.6-9.6 11.6-19 17.8-28.2 3.2-4.6 6.6-9.2 10-13.8-6.6 8.6 0.2 0 1.6-2 2.2-2.8 4.4-5.4 6.8-8 8.6-10 17.6-19.4 27.2-28.4 4.8-4.6 9.8-9 15-13.2 2.6-2.2 5.2-4.4 8-6.6 1.4-1 2.8-2.2 4-3.2-7.4 5.8-0.6 0.6 1-0.6 25.8-19.2 53.8-35 83.2-48 1.4-0.6 8.2-3.4 0.6-0.2l6-2.4c4-1.6 8-3.2 12.2-4.6 9.2-3.4 18.4-6.6 27.8-9.4 19.4-6 39-10.8 58.8-14.8 10.2-2 20.6-3.8 31-5.4 0.8-0.2 9.8-1.4 2.8-0.4 2.8-0.4 5.4-0.6 8.2-1 6.4-0.8 13-1.4 19.6-2 25-2.4 50-3.4 75-3.6 25.2-0.2 50.4 1 75.4 3.8 3 0.4 6 0.8 9 1-6-0.8 4 0.6 4.2 0.6 6.2 0.8 12.2 1.8 18.4 3 13.4 2.4 26.6 5.2 40 8.2 25.8 6 51.2 13.8 76.2 22.6 25.2 9 43.4 17 68.4 29.6 17.4 8.8 34.4 18.8 50.8 29.4 18.6 12 28.2 19.4 43.8 33 12.4 10.8 30.2 12.2 42.4 0 11-11 12.4-31.6 0-42.4-80.6-70-183.2-113.4-287-134.8-98.6-20.4-202.6-18.4-301 2C231.8 217.4 116 286 50.2 397.8 32 428.8 17.6 463 8.6 498c-2 8.2-3.8 16.4-5 24.6-3.2 21.8-0.2 43.6 3.6 65.4 15.4 84.6 72.2 154.4 139 205.2 76.6 58.4 172.2 92 266.8 105.2 105.8 14.8 215.2 7 316.6-27.4 85.8-29 168.6-78 225.2-149.8 42.2-53.6 68.6-117.6 69-186.4 0.4-39-59.6-38.8-59.8-0.2z" p-id="742" fill="#333333"></path><path d="M641.4 549.6c-0.4 40.4-19.6 79.8-52 103.4-35 25.6-78 31.4-118.8 18-37.4-12.2-67.8-44.6-80-81.8-13.4-40.8-5-83.6 20.4-118.4 32-43.8 92.4-59.6 144-42.8 51.6 17 86 68 86.4 121.6 0.2 29 45.2 29 45 0-1-99.6-87.2-181-187.4-172.8-47.4 3.8-92.2 27.4-121.6 64.8-31.2 39.8-42.8 89-35 138.8 13.6 86.8 98.4 149.2 184.6 142.2 89.6-7.4 158.8-83.4 159.6-172.8 0.2-29.2-44.8-29.2-45.2-0.2z" p-id="743" fill="#333333"></path></svg>