<?xml version="1.0" standalone="no"?><!DOCTYPE svg PUBLIC "-//W3C//DTD SVG 1.1//EN" "http://www.w3.org/Graphics/SVG/1.1/DTD/svg11.dtd"><svg t="1511503746802" class="icon" style="" viewBox="0 0 1024 1024" version="1.1" xmlns="http://www.w3.org/2000/svg" p-id="5540" xmlns:xlink="http://www.w3.org/1999/xlink" width="48" height="48"><defs><style type="text/css"></style></defs><path d="M485.734 76.86c-235.218 0-425.578 165.593-425.578 369.859 0 125.328 72.735 236.765 182.61 304.828v114.531c0 15.469 10.828 24.75 23.218 24.75 4.641 0 9.297-1.531 12.375-3.094l116.063-77.375c29.422 6.188 58.812 7.75 89.765 7.75 235.22 0 425.563-165.593 425.563-369.859 1.566-205.797-188.778-371.39-424.016-371.39z m0 679.346c-26.312 0-52.625-3.094-78.921-7.75l-12.391-3.094c-7.735-1.53-15.469 0-23.219 4.657l-10.812 7.718-55.72 37.157V734.55c0-10.844-6.187-21.688-15.468-26.313l-15.484-9.28C177.766 641.674 120.516 547.3 120.516 448.252c0-170.219 162.5-307.937 363.671-307.937 201.188 0 363.657 137.718 363.657 307.937 1.565 168.672-162.466 307.953-362.11 307.953zM244.313 457.531c0 28.219 22.859 51.078 51.078 51.078 28.203 0 51.062-22.859 51.062-51.078 0-28.172-22.86-51.047-51.062-51.047-28.22 0-51.079 22.875-51.079 51.047z m193.453 0c0 28.219 22.859 51.078 51.062 51.078s51.078-22.859 51.078-51.078c0-28.172-22.875-51.047-51.078-51.047s-51.062 22.875-51.062 51.047z m187.234 0c0 28.219 22.875 51.078 51.063 51.078 28.218 0 51.093-22.859 51.093-51.078 0-28.172-22.875-51.047-51.093-51.047-28.188 0-51.063 22.875-51.063 51.047z m293.128 79.957c-0.912-1.152-1.872-2.256-2.816-3.408-6.656 25.28-16.16 49.632-28.128 72.752 0.496 1.12 1.12 2.192 1.6 3.312 8.096 18.624 12.496 38.752 12.496 59.744 0 55.664-32.16 108.688-86.064 140.848l-8.688 5.216c-5.216 2.592-8.72 8.688-8.72 14.784V864.64l-31.28-20.88-6.096-4.336c-4.336-2.592-8.688-3.472-13.024-2.592l-6.944 1.712c-14.816 2.656-29.6 4.336-44.336 4.336-35.44 0-68.816-7.84-97.936-21.504-28.912 6.752-58.912 11.008-89.808 12.464 48.4 41.712 115.008 67.504 188.592 67.504 19.504 0 38-0.976 56.496-4.848l73.056 48.688c1.936 0.976 4.848 1.936 7.744 1.936 7.808 0 14.624-5.84 14.624-15.568v-72.096c69.152-42.848 114.944-112.976 114.944-191.84 0-48.192-16.848-92.976-45.712-130.128z" fill="#22a6ff" p-id="5541"></path></svg>