<?xml version="1.0" standalone="no"?><!DOCTYPE svg PUBLIC "-//W3C//DTD SVG 1.1//EN" "http://www.w3.org/Graphics/SVG/1.1/DTD/svg11.dtd"><svg t="1511503929418" class="icon" style="" viewBox="0 0 1024 1024" version="1.1" xmlns="http://www.w3.org/2000/svg" p-id="6530" xmlns:xlink="http://www.w3.org/1999/xlink" width="48" height="48"><defs><style type="text/css"></style></defs><path d="M511.6 63.4c-80.7 0-156.4 21.4-221.8 58.7-0.4 0.2-0.7 0.4-1.1 0.6l-1.5 0.9v0.1c-9.8 6.3-16.3 17.2-16.3 29.7 0 19.5 15.8 35.3 35.3 35.3 6.6 0 12.8-1.9 18.1-5.1 55.2-31.6 119.1-49.8 187.3-49.8 208.6 0 377.8 169.1 377.8 377.8S720.2 889.3 511.6 889.3 133.8 720.2 133.8 511.6c0-65.9 17-127.8 46.6-181.7 3.4-5.4 5.4-11.8 5.4-18.6 0-19.5-15.8-35.3-35.3-35.3-12.7 0-23.7 6.7-30 16.7h-0.1c-0.3 0.5-0.6 1-0.8 1.5l-0.3 0.6C83.7 359 63.4 432.9 63.4 511.6c0 247.5 200.7 448.2 448.2 448.2s448.2-200.7 448.2-448.2c0-247.6-200.7-448.2-448.2-448.2z" fill="#888888" p-id="6531"></path><path d="M660.8 512.6c-0.5 81.9-67.1 148.2-149.1 148.2-82.4 0-149.2-66.8-149.2-149.2 0-82.2 66.5-148.9 148.6-149.2l1.2-74.2h-0.7c-123.4 0-223.4 100-223.4 223.4S388.2 735 511.6 735c122.8 0 222.4-99.1 223.3-221.7l-74.1-0.7z" fill="#888888" p-id="6532"></path><path d="M512.3 325.4m-37.1 0a37.1 37.1 0 1 0 74.2 0 37.1 37.1 0 1 0-74.2 0Z" fill="#888888" p-id="6533"></path><path d="M698 512.6m-37.1 0a37.1 37.1 0 1 0 74.2 0 37.1 37.1 0 1 0-74.2 0Z" fill="#888888" p-id="6534"></path><path d="M664 362.2m-70 0a70 70 0 1 0 140 0 70 70 0 1 0-140 0Z" fill="#888888" p-id="6535"></path></svg>