<?xml version="1.0" standalone="no"?><!DOCTYPE svg PUBLIC "-//W3C//DTD SVG 1.1//EN" "http://www.w3.org/Graphics/SVG/1.1/DTD/svg11.dtd"><svg t="1511599659322" class="icon" style="" viewBox="0 0 1024 1024" version="1.1" xmlns="http://www.w3.org/2000/svg" p-id="1149" xmlns:xlink="http://www.w3.org/1999/xlink" width="48" height="48"><defs><style type="text/css"></style></defs><path d="M882.709043 555.61638 359.356484 555.61638c-24.087605 0-43.615357-19.527752-43.615357-43.61331s19.527752-43.61331 43.615357-43.61331l523.352559 0c24.087605 0 43.61331 19.527752 43.61331 43.61331S906.796648 555.61638 882.709043 555.61638zM882.709043 293.938566 359.354438 293.938566c-24.087605 0-43.61331-19.527752-43.61331-43.61331s19.525706-43.61331 43.61331-43.61331l523.354606 0c24.087605 0 43.61331 19.527752 43.61331 43.61331S906.796648 293.938566 882.709043 293.938566zM184.903244 817.289078l-43.61331 0c-24.087605 0-43.61331-19.525706-43.61331-43.61331 0-24.087605 19.525706-43.61024 43.61331-43.61024l43.61331 0c24.087605 0 43.61331 19.523659 43.61331 43.61024C228.516554 797.763372 208.990848 817.289078 184.903244 817.289078zM184.903244 555.611264l-43.61331 0c-24.087605 0-43.61331-19.525706-43.61331-43.61024 0-24.089651 19.525706-43.61331 43.61331-43.61331l43.61331 0c24.087605 0 43.61331 19.523659 43.61331 43.61331C228.516554 536.086581 208.990848 555.611264 184.903244 555.611264zM184.903244 293.936519l-43.61331 0c-24.087605 0-43.61331-19.527752-43.61331-43.615357 0-24.085558 19.525706-43.61331 43.61331-43.61331l43.61331 0c24.087605 0 43.61331 19.527752 43.61331 43.61331C228.516554 274.408767 208.990848 293.936519 184.903244 293.936519zM359.356484 730.067574l523.352559 0c24.087605 0 43.61331 19.525706 43.61331 43.61024 0 24.087605-19.525706 43.61331-43.61331 43.61331L359.356484 817.291125c-24.087605 0-43.615357-19.525706-43.615357-43.61331C315.742151 749.59328 335.269903 730.067574 359.356484 730.067574z" p-id="1150" fill="#ffffff"></path></svg>