<?xml version="1.0" standalone="no"?><!DOCTYPE svg PUBLIC "-//W3C//DTD SVG 1.1//EN" "http://www.w3.org/Graphics/SVG/1.1/DTD/svg11.dtd"><svg t="1511505115032" class="icon" style="" viewBox="0 0 1024 1024" version="1.1" xmlns="http://www.w3.org/2000/svg" p-id="985" xmlns:xlink="http://www.w3.org/1999/xlink" width="48" height="48"><defs><style type="text/css"></style></defs><path d="M509.067984 603.936451h-6.357226 12.714452-6.357226zM661.641404 562.614484c89.001161-50.857806 149.394806-149.394806 149.394806-260.646258C811.03621 136.680355 674.355855 0 509.067984 0S207.099759 136.680355 207.099759 301.968226c0 111.251452 60.393645 209.788452 149.394806 260.646258C168.956404 623.008129 25.918823 785.117387 0.48992 988.548612c-3.178613 19.071677 9.535839 31.786129 28.607516 34.964742 15.893065 3.178613 31.786129-9.535839 34.964742-28.607516 28.607516-222.502903 216.145677-390.969387 438.64858-390.969387h12.714452c222.502903 3.178613 410.041064 171.645097 438.648581 390.969387 3.178613 15.893065 15.893065 28.607516 31.786129 28.607516h3.178612c19.071677-3.178613 28.607516-19.071677 28.607517-34.964742-25.428903-203.431226-168.466484-365.540484-356.004645-425.934128z m-149.394807-22.250291H509.067984h-3.178613c-130.323129-3.178613-235.217355-108.072839-235.217354-238.395967S378.744855 63.572258 509.067984 63.572258s238.395968 108.072839 238.395968 238.395968-104.894226 235.217355-235.217355 238.395967z" p-id="986" fill="#22a6ff"></path><path d="M512.246597 540.364193H509.067984h-3.178613 6.357226z" p-id="987" fill="#22a6ff"></path></svg>