<?xml version="1.0" standalone="no"?><!DOCTYPE svg PUBLIC "-//W3C//DTD SVG 1.1//EN" "http://www.w3.org/Graphics/SVG/1.1/DTD/svg11.dtd"><svg t="1487062192266" class="icon" style="" viewBox="0 0 1024 1024" version="1.1" xmlns="http://www.w3.org/2000/svg" p-id="4124" xmlns:xlink="http://www.w3.org/1999/xlink" width="200" height="200"><defs><style type="text/css"></style></defs><path d="M745.304092 941.303556" p-id="4125" fill="#1296db"></path><path d="M103.570355 941.303556" p-id="4126" fill="#1296db"></path><path d="M953.136557 47.413869" p-id="4127" fill="#1296db"></path><path d="M962.480366 519.126304 962.480366 519.126304 962.480366 519.126304 962.480366 519.126304zM511.908414 969.69007 511.908414 969.69007c-225.535663 0-408.338059-182.77579-408.338059-408.337035 0-170.70794 104.799858-316.888254 253.449409-377.872187l0 0.100284c4.3951-1.568728 9.135054-2.412956 14.102183-2.412956 23.263843 0 42.258453 18.902512 42.258453 42.22366 0 18.35709-11.753695 34.059724-28.212552 39.848567l0 0.030699c-115.834168 49.27424-197.116403 164.197666-197.116403 298.051233 0 178.881087 144.978952 323.855946 323.855946 323.855946 178.884157 0 323.857992-145.005558 323.857992-323.855946 0-133.852544-81.219813-248.753457-197.150172-298.051233l0 0c-16.418948-5.762237-28.141944-21.464871-28.141944-39.845497 0-23.329335 18.888186-42.227754 42.22673-42.227754 4.910846 0 9.614985 0.844228 14.072507 2.412956l0-0.101307c148.772348 60.990073 253.449409 207.169363 253.449409 377.87321C920.256706 786.91428 737.420541 969.69007 511.908414 969.69007M511.908414 533.205974c-23.290449 0-42.219567-18.906605-42.219567-42.261523L469.688847 241.029542l0-85.396949 0-44.843324C469.658148 87.516216 488.617965 68.561515 511.908414 68.561515c23.328311 0 42.22673 18.933211 42.22673 42.227754l0 126.739543 0 84.479043L554.135144 490.920916C554.143331 514.272763 535.244912 533.205974 511.908414 533.205974" p-id="4128" fill="#1296db"></path></svg>