<?xml version="1.0" standalone="no"?><!DOCTYPE svg PUBLIC "-//W3C//DTD SVG 1.1//EN" "http://www.w3.org/Graphics/SVG/1.1/DTD/svg11.dtd"><svg t="1487059695658" class="icon" style="" viewBox="0 0 1024 1024" version="1.1" xmlns="http://www.w3.org/2000/svg" p-id="1778" xmlns:xlink="http://www.w3.org/1999/xlink" width="200" height="200"><defs><style type="text/css"></style></defs><path d="M950.418039 133.660407 73.58193 133.660407c-11.003965 0-19.926822 8.922857-19.926822 19.926822l0 717.409372c0 11.00883 8.922857 19.931687 19.926822 19.931687l876.836109 0c11.003965 0 19.926822-8.922857 19.926822-19.931687L970.344861 153.587229C970.344861 142.583264 961.422004 133.660407 950.418039 133.660407L950.418039 133.660407zM102.479044 173.518916l817.051995 0c5.501374 0 9.962803 4.461428 9.962803 9.962803l0 559.692767L688.193568 501.874212c-7.786823-7.781957-20.401183-7.781957-28.18314 0l-89.537512 89.532647L397.55729 418.491233c-7.786823-7.783174-20.401183-7.783174-28.184357 0L92.515025 695.349141 92.515025 183.481719C92.515025 177.980344 96.976454 173.518916 102.479044 173.518916L102.479044 173.518916zM919.531039 851.069779 102.479044 851.069779c-5.502591 0-9.964019-4.461428-9.964019-9.962803l0-89.393987L383.465111 460.762903l292.798879 292.802528c3.890979 3.890979 8.988538 5.834643 14.092178 5.834643 5.102424 0 10.199983-1.943665 14.092178-5.834643 7.781957-7.781957 7.781957-20.401183 0-28.184357l-105.791075-105.789859 75.444117-75.440468 255.392453 255.392453 0 41.563777C929.493842 846.60835 925.032414 851.069779 919.531039 851.069779L919.531039 851.069779zM750.140283 452.510233c55.028339 0 99.637758-44.609419 99.637758-99.642623 0-55.029555-44.609419-99.637758-99.637758-99.637758-55.028339 0-99.642623 44.608203-99.642623 99.637758C650.49766 407.900814 695.111944 452.510233 750.140283 452.510233L750.140283 452.510233zM750.140283 293.082279c32.964459 0 59.784114 26.820872 59.784114 59.785331 0 32.968107-26.819656 59.784114-59.784114 59.784114-32.963242 0-59.784114-26.816007-59.784114-59.784114C690.356168 319.903151 717.177041 293.082279 750.140283 293.082279L750.140283 293.082279zM750.140283 293.082279" p-id="1779" fill="#0aaff4"></path></svg>