<?xml version="1.0" standalone="no"?><!DOCTYPE svg PUBLIC "-//W3C//DTD SVG 1.1//EN" "http://www.w3.org/Graphics/SVG/1.1/DTD/svg11.dtd"><svg t="1487059763716" class="icon" style="" viewBox="0 0 1024 1024" version="1.1" xmlns="http://www.w3.org/2000/svg" p-id="3438" xmlns:xlink="http://www.w3.org/1999/xlink" width="200" height="200"><defs><style type="text/css"></style></defs><path d="M953.55816 326.435701c-5.409197-7.676843-14.155395-12.214183-23.499204-12.214183L825.33073 314.221518 638.783033 135.220704c-22.571065-22.541389-59.210543-22.569018-81.808214 0L371.205858 314.221518l-81.131809 0-35.960003-181.186595c-18.225083-63.119573-61.533448-69.922513-79.294974-69.922513l-81.890079 0c-15.875572 0-28.717042 12.870122-28.717042 28.744671 0 15.847943 12.842493 28.690436 28.717042 28.690436l81.890079 0c3.934612 0 15.876596 0 24.046672 28.198226L306.221822 743.128031c3.470031 12.375865 14.781658 20.957311 27.65178 20.957311l507.544525 0c12.130272 0 22.951735-7.624654 27.024493-19.019169l88.638783-392.401088C960.223976 343.840092 958.912098 334.030679 953.55816 326.435701zM597.906044 176.125323l143.899364 138.096195L456.002127 314.221518 597.906044 176.125323zM821.198619 706.623629 355.650581 706.623629l-49.457412-334.967004 583.01438 0L821.198619 706.623629zM778.217712 815.263955c-39.920198 0-72.297606 32.351825-72.297606 72.29863 0 39.923268 32.378431 72.300676 72.297606 72.300676 39.922245 0 72.300676-32.378431 72.300676-72.300676C850.518389 847.615781 818.139957 815.263955 778.217712 815.263955zM386.800022 815.263955c-39.946804 0-72.29863 32.351825-72.29863 72.29863 0 39.923268 32.351825 72.300676 72.29863 72.300676 39.921221 0 72.299653-32.378431 72.299653-72.300676C459.100698 847.615781 426.721243 815.263955 386.800022 815.263955z" p-id="3439" fill="#0aaff4"></path></svg>