<?xml version="1.0" standalone="no"?><!DOCTYPE svg PUBLIC "-//W3C//DTD SVG 1.1//EN" "http://www.w3.org/Graphics/SVG/1.1/DTD/svg11.dtd"><svg t="1490769322097" class="icon" style="" viewBox="0 0 1024 1024" version="1.1" xmlns="http://www.w3.org/2000/svg" p-id="3694" xmlns:xlink="http://www.w3.org/1999/xlink" width="200" height="200"><defs><style type="text/css"></style></defs><path d="M510.465 71.467c-243.017 0-440.022 197.005-440.022 440.021S267.448 951.51 510.465 951.51s440.022-197.005 440.022-440.022S753.482 71.467 510.465 71.467z m0 831.822c-216.385 0-391.8-175.415-391.8-391.8s175.415-391.801 391.8-391.801 391.8 175.415 391.8 391.8-175.415 391.8-391.8 391.8z" p-id="3695" fill="#0aaff4"></path><path d="M785.878 330.15c-25.41-40.996-112.526-2.777-204.156 54.6l-101.528-51.822 2.405-1.407c4.966-2.898 6.676-9.324 3.802-14.36-2.855-5.03-9.213-6.751-14.177-3.844l-14.193 8.297-100.442-51.27c-9.929-5.8-21.745-3.239-27.49 6.83-5.728 10.05-1.392 20.05 6.72 29.611l132.143 155.329c-54.923 40.432-101.865 78.441-125.663 98.096-0.504-0.199-1.01-0.38-1.533-0.54l-87.473-26.796c-11.141-3.405-22.331 3.136-24.984 14.617 0 0 39.107 39.293 53.603 64.734 14.463 25.368 28.408 79.13 28.408 79.13 11.156 3.419 22.328-3.122 24.984-14.609l13.23-57.215a54.07 54.07 0 0 0 6.992-3.438c0.001 0.003 477.712-207.917 429.352-285.943zM635.004 618.891l5.638-98.91c-34.943 25.388-72.01 49.77-106.688 71.411l52.39 153.077c4.18 12.657 9.263 21 20.736 20.992 11.47-0.009 20.767-9.42 20.767-21.015l5.726-100.463 11.374-6.648c4.966-2.905 6.676-9.329 3.801-14.37-2.785-4.879-8.836-6.628-13.744-4.074z m0 0" p-id="3696" fill="#0aaff4"></path></svg>