<?xml version="1.0" standalone="no"?><!DOCTYPE svg PUBLIC "-//W3C//DTD SVG 1.1//EN" "http://www.w3.org/Graphics/SVG/1.1/DTD/svg11.dtd"><svg t="1487059741723" class="icon" style="" viewBox="0 0 1024 1024" version="1.1" xmlns="http://www.w3.org/2000/svg" p-id="2742" xmlns:xlink="http://www.w3.org/1999/xlink" width="200" height="200"><defs><style type="text/css"></style></defs><path d="M1023.3015 470.798c0 238.148-229.084 431.798-511.73 431.798-78.284 0-151.624-14.833-218.371-41.202L99.5505 985l30.49-225.787C50.1085 682.577 0.6655 581.219 0.6655 470.798 0.6655 232.65 229.7495 39 512.3955 39 794.2185 39 1023.3015 232.65 1023.3015 470.798zM159.4065 894.2l128.85-90.543 19.59-1.84c62.222 23.532 129.356 49.283 199.764 49.283 254.618 0 461.751-177.926 461.751-379.519S762.2285 93.46 507.6115 93.46 54.2605 269.202 54.2605 471.58c0 88.638 32.535 174.923 106.219 241.598L182.0065 749.5 159.4065 894.2z" p-id="2743" fill="#0aaff4"></path><path d="M228.1015 451.021c0 33.223 26.932 60.155 60.155 60.155 33.223 0 60.155-26.932 60.155-60.155s-26.932-60.155-60.155-60.155S228.1015 417.798 228.1015 451.021L228.1015 451.021z" p-id="2744" fill="#0aaff4"></path><path d="M466.2495 451.021c0 33.223 26.932 60.155 60.155 60.155 33.223 0 60.155-26.932 60.155-60.155s-26.932-60.155-60.155-60.155C493.1815 390.866 466.2495 417.798 466.2495 451.021L466.2495 451.021z" p-id="2745" fill="#0aaff4"></path><path d="M704.3975 451.021c0 33.223 26.932 60.155 60.155 60.155 33.223 0 60.155-26.932 60.155-60.155s-26.932-60.155-60.155-60.155C731.3295 390.866 704.3975 417.798 704.3975 451.021L704.3975 451.021z" p-id="2746" fill="#0aaff4"></path></svg>