<?xml version="1.0" standalone="no"?><!DOCTYPE svg PUBLIC "-//W3C//DTD SVG 1.1//EN" "http://www.w3.org/Graphics/SVG/1.1/DTD/svg11.dtd"><svg t="1487059726778" class="icon" style="" viewBox="0 0 1024 1024" version="1.1" xmlns="http://www.w3.org/2000/svg" p-id="2044" xmlns:xlink="http://www.w3.org/1999/xlink" width="200" height="200"><defs><style type="text/css"></style></defs><path d="M512 932.977778C279.506489 932.977778 91.022222 744.493511 91.022222 511.977244S279.506489 91.022222 512 91.022222 932.977778 279.460978 932.977778 511.977244 744.493511 932.977778 512 932.977778zM512 136.510578c-207.371378 0-375.466667 168.118044-375.466667 375.466667s168.095289 375.466667 375.466667 375.466667S887.466667 719.325867 887.466667 511.977244 719.371378 136.510578 512 136.510578zM793.508978 556.691911C777.534578 653.903644 668.808533 796.421689 523.377778 796.421689l-22.755556 0c-152.689778 0-254.1568-142.518044-270.1312-239.729778C228.784356 553.483378 227.555556 550.001778 227.555556 546.110578l0-45.511111c0-12.561067 10.194489-22.755556 22.755556-22.755556l523.377778 0c12.561067 0 22.755556 10.194489 22.755556 22.755556l0 45.511111C796.444444 550.001778 795.215644 553.483378 793.508978 556.691911zM273.635556 523.355022c5.870933 88.928711 100.602311 227.555556 238.364444 227.555556 130.4576 0 232.470756-138.626844 238.364444-227.555556L273.635556 523.355022zM722.284089 408.644267l-136.8064-43.144533c-12.0832-3.436089-19.273956-16.634311-16.042667-29.4912 3.254044-12.834133 15.655822-20.457244 27.761778-17.021156l136.8064 43.144533c12.105956 3.436089 19.273956 16.634311 16.042667 29.4912S734.390044 412.080356 722.284089 408.644267zM437.748622 362.928356l-137.352533 40.777956c-12.151467 3.2768-24.621511-3.936711-27.875556-16.088178-3.254044-12.128711 3.959467-24.598756 16.110933-27.875556l137.329778-40.800711c12.151467-3.254044 24.621511 3.959467 27.875556 16.088178C457.090844 347.204267 449.877333 359.674311 437.748622 362.928356z" p-id="2045" fill="#0aaff4"></path></svg>