<?xml version="1.0" standalone="no"?><!DOCTYPE svg PUBLIC "-//W3C//DTD SVG 1.1//EN" "http://www.w3.org/Graphics/SVG/1.1/DTD/svg11.dtd"><svg t="1488354600262" class="icon" style="" viewBox="0 0 1024 1024" version="1.1" xmlns="http://www.w3.org/2000/svg" p-id="2323" xmlns:xlink="http://www.w3.org/1999/xlink" width="200" height="200"><defs><style type="text/css"></style></defs><path d="M736.048379 127.978498c-65.881404 0-128.494541 24.942046-176.314463 70.525785-4.644381 4.300353-28.726356 28.726356-47.30388 47.647909l-47.30388-47.131866c-47.819923-45.755753-110.605073-71.041828-177.00252-71.041828-141.223585 0-255.956996 114.905426-255.956996 255.956996 0 82.394759 41.111372 144.319839 76.546279 182.506971l316.849992 320.11826c25.11406 25.11406 52.980346 41.455401 86.695112 41.455401 33.714766 0 61.581052-16.341341 86.695112-41.455401l316.677977-319.946246 2.236183-2.408198c38.187133-47.647909 74.310096-92.715606 74.310096-180.098774C992.005375 242.883924 877.09995 127.978498 736.048379 127.978498z" p-id="2324" fill="#1296db"></path></svg>