<?xml version="1.0" standalone="no"?><!DOCTYPE svg PUBLIC "-//W3C//DTD SVG 1.1//EN" "http://www.w3.org/Graphics/SVG/1.1/DTD/svg11.dtd"><svg t="1511520651819" class="icon" style="" viewBox="0 0 1024 1024" version="1.1" xmlns="http://www.w3.org/2000/svg" p-id="3030" xmlns:xlink="http://www.w3.org/1999/xlink" width="48" height="48"><defs><style type="text/css"></style></defs><path d="M509.09688 112.75504c24.722054 0 48.681746 5.794983 71.212902 17.223267 23.332405 11.835559 44.503587 29.350468 62.940494 52.082192 37.773302 46.520523 58.576093 108.871593 58.576093 175.567621 0 61.8343-47.986921 134.268006-76.658937 177.546695l-0.030699 0.047072c-0.016373 0.024559-0.033769 0.050142-0.050142 0.075725l-1.109264 1.680269c-16.311501 24.706705-22.854521 35.18229-26.094308 46.035476-1.039679 3.456728-1.983167 6.865361-2.804882 10.132778-10.225899 40.675398 8.774851 82.253352 46.206368 101.110839 8.512884 4.288676 18.038842 8.541537 26.148543 11.6749l189.692317 73.883731c0.373507 0.145309 0.748037 0.286526 1.124614 0.423649 29.160133 10.57587 50.324152 38.367843 50.324152 66.084091l0 20.064988c-0.059352 12.164041-4.348028 22.204721-12.746302 29.842679-9.509585 8.648984-23.697725 13.411451-39.948851 13.411451l-691.652659 0c-16.290011 0-30.473035-4.743024-39.934524-13.356193-8.365528-7.614421-12.607132-17.687848-12.607132-29.938869l0-20.205181c0-26.646893 20.75879-53.746088 49.363268-64.437591 1.74883-0.653893 3.378957-1.319042 4.978385-2.032286l167.147858-74.444503c10.722202-3.339048 22.432918-7.710612 33.082466-12.351306 44.149523-19.240203 65.239863-70.811766 47.01171-114.967428-0.937348-2.269693-1.974981-4.501524-3.095501-6.658653-2.130524-4.096295-5.013177-8.596795-10.346649-16.8559-0.819668-1.269923-1.662873-2.574638-2.509147-3.89061-0.069585-0.107447-0.13917-0.214894-0.208754-0.322341-13.876032-21.218254-34.844599-53.283554-52.051493-89.295745-19.057031-39.886429-28.720112-74.583672-28.720112-103.129822 0-66.703191 20.806885-129.052215 58.589396-175.561481 0.020466-0.025583 0.040932-0.050142 0.061398-0.075725 18.396999-22.735817 39.563064-40.273239 62.907749-52.125171C460.425368 118.554116 484.380966 112.75504 509.09688 112.75504M509.09688 61.58973c-65.950038 0-127.723963 31.302937-173.881213 88.343047-45.213761 55.656601-70.042239 129.552611-70.042239 207.822233 0 84.124979 60.21236 176.23277 89.115644 220.429365 4.607948 7.164167 9.114588 14.023388 10.496052 16.677844 0.431835 0.830925 0.828878 1.692548 1.195222 2.576685 7.767917 18.817578-1.499144 40.399105-20.162202 48.532343-8.995885 3.920286-19.385513 7.798617-28.538987 10.616802-0.212848 0.065492-0.425695 0.121773-0.64366 0.170892-0.532119 0.119727-1.050935 0.292666-1.548262 0.514723L145.211243 732.932832c-0.683569 0.304945-1.379417 0.583285-2.080382 0.846274-48.719608 18.210757-82.610486 64.212464-82.610486 112.363114l0 20.205181c0 54.78986 43.647079 94.460372 103.70799 94.460372l691.652659 0c60.030212 0 103.680361-39.822984 103.860463-94.333482l0-20.151969c0-49.41955-34.532491-96.226598-84.044138-114.183576L685.916005 658.219199c-6.098905-2.353604-14.034645-5.842055-21.611204-9.657964-15.767102-7.942903-23.908526-25.819039-19.6045-42.940998 0.618077-2.459005 1.346671-5.102205 2.202155-7.940856 1.411139-4.810562 12.212136-21.051455 20.889773-34.20094 31.874965-48.112788 85.201497-128.581494 85.201497-205.851345 0-78.394465-24.833595-152.168702-70.021773-207.820186C636.788098 92.870154 575.069431 61.58973 509.09688 61.58973L509.09688 61.58973z" p-id="3031" fill="#22a6ff"></path></svg>