<?xml version="1.0" standalone="no"?><!DOCTYPE svg PUBLIC "-//W3C//DTD SVG 1.1//EN" "http://www.w3.org/Graphics/SVG/1.1/DTD/svg11.dtd"><svg t="1511598989216" class="icon" style="" viewBox="0 0 1024 1024" version="1.1" xmlns="http://www.w3.org/2000/svg" p-id="2598" xmlns:xlink="http://www.w3.org/1999/xlink" width="48" height="48"><defs><style type="text/css"></style></defs><path d="M899.818723 555.092447 382.719588 555.092447c-23.796986 0-43.091424-19.294438-43.091424-43.091424 0-23.799032 19.294438-43.091424 43.091424-43.091424l517.099135 0c23.799032 0 43.091424 19.292392 43.091424 43.091424C942.910147 535.798009 923.617755 555.092447 899.818723 555.092447zM185.058786 512.001023l335.979054 335.979054c16.827247 16.827247 16.827247 44.110637 0 60.939931-16.827247 16.829294-44.110637 16.829294-60.939931 0L93.700055 542.522154c-8.428973-8.426927-12.623505-19.47761-12.611226-30.524201-0.013303-11.044544 4.182252-22.095227 12.611226-30.522154L460.096886 115.079992c16.829294-16.829294 44.112684-16.829294 60.939931 0 16.827247 16.827247 16.827247 44.112684 0 60.939931L185.058786 512.001023z" p-id="2599" fill="#ffffff"></path></svg>